<svg width="40" height="40" viewBox="0 0 40 40" fill="none" xmlns="http://www.w3.org/2000/svg">
<g clip-path="url(#clip0_191_34)">
<path d="M39.5 20C39.5 9.23045 30.7696 0.5 20 0.5C9.23045 0.5 0.5 9.23045 0.5 20C0.5 30.7696 9.23045 39.5 20 39.5C30.7696 39.5 39.5 30.7696 39.5 20Z" fill="white"/>
<mask id="mask0_191_34" style="mask-type:luminance" maskUnits="userSpaceOnUse" x="10" y="10" width="20" height="20">
<path d="M30 10H10V30H30V10Z" fill="white"/>
</mask>
<g mask="url(#mask0_191_34)">
<path d="M29.6 20.2271C29.6 19.518 29.5364 18.8362 29.4182 18.1816H20V22.0498H25.3818C25.15 23.2998 24.4455 24.3589 23.3864 25.068V27.5771H26.6182C28.5091 25.8362 29.6 23.2725 29.6 20.2271Z" fill="#4285F4"/>
<path d="M19.9999 29.9999C22.6999 29.9999 24.9635 29.1044 26.618 27.5772L23.3862 25.0681C22.4908 25.6681 21.3453 26.0226 19.9999 26.0226C17.3953 26.0226 15.1908 24.2635 14.4044 21.8999H11.0635V24.4908C12.709 27.759 16.0908 29.9999 19.9999 29.9999Z" fill="#34A853"/>
<path d="M14.4045 21.9002C14.2045 21.3002 14.0909 20.6593 14.0909 20.0002C14.0909 19.3411 14.2045 18.7002 14.4045 18.1002V15.5093H11.0636C10.3864 16.8593 10 18.3866 10 20.0002C10 21.6138 10.3864 23.1411 11.0636 24.4911L14.4045 21.9002Z" fill="#FBBC04"/>
<path d="M19.9999 13.9773C21.468 13.9773 22.7862 14.4818 23.8226 15.4727L26.6908 12.6045C24.959 10.9909 22.6953 10 19.9999 10C16.0908 10 12.709 12.2409 11.0635 15.5091L14.4044 18.1C15.1908 15.7364 17.3953 13.9773 19.9999 13.9773Z" fill="#E94235"/>
</g>
</g>
<defs>
<clipPath id="clip0_191_34">
<rect width="40" height="40" fill="white"/>
</clipPath>
</defs>
</svg>
